# xmcd
#
# Track frame offsets:
#	150
#	13493
#	29512
#	44572
#	61457
#	83761
#	97302
#	110523
#	129898
#	149886
#	163361
#	181925
#	193126
#
# Disc length: 2784 seconds
# Revision: 0
# Processed by: cddbd v1.5.2PL0 Copyright (c) Steve Scherf et al.
# Submitted via: dBpowerAMP V12.0
#
DISCID=ca0ade0d
DTITLE=Shiloh Sharrard - Going Nowhere
DYEAR=2013
DGENRE=Country
TTITLE0=Going Nowhere
TTITLE1=Heart of the Wood
TTITLE2=Yesterday's Blues
TTITLE3=Old Lonesome Sounds
TTITLE4=Shame on the Moon
TTITLE5=He's More than Your Eyes Can See
TTITLE6=Loved and Lost
TTITLE7=Wagon Wheel
TTITLE8=Before the Next Teardrop Falls
TTITLE9=It's Only Make Believe
TTITLE10=When I Get over You
TTITLE11=Why'd You Come in Here Lookin' Like That
TTITLE12=I Don't Hurt Anymore
EXTD=
EXTT0=
EXTT1=
EXTT2=
EXTT3=
EXTT4=
EXTT5=
EXTT6=
EXTT7=
EXTT8=
EXTT9=
EXTT10=
EXTT11=
EXTT12=
PLAYORDER=
